<svg xmlns="http://www.w3.org/2000/svg" viewBox="0 0 512 512">
  <defs>
    <linearGradient id="edge" x1="72" x2="440" y1="70" y2="442" gradientUnits="userSpaceOnUse">
      <stop stop-color="#d8ff55"/>
      <stop offset=".48" stop-color="#19bda7"/>
      <stop offset="1" stop-color="#ff6b5f"/>
    </linearGradient>
    <linearGradient id="shine" x1="150" x2="392" y1="130" y2="382" gradientUnits="userSpaceOnUse">
      <stop stop-color="#fff" stop-opacity=".95"/>
      <stop offset=".54" stop-color="#d8ff55"/>
      <stop offset="1" stop-color="#19bda7"/>
    </linearGradient>
    <filter id="glow" width="170%" height="170%" x="-35%" y="-35%" color-interpolation-filters="sRGB">
      <feGaussianBlur stdDeviation="15" result="blur"/>
      <feColorMatrix in="blur" values="0 0 0 0 0.847 0 0 0 0 1 0 0 0 0 0.333 0 0 0 .55 0"/>
      <feBlend in="SourceGraphic"/>
    </filter>
  </defs>
  <rect width="512" height="512" rx="86" fill="#10120f"/>
  <path fill="none" stroke="#fff" stroke-opacity=".08" stroke-width="2" d="M84 132h344M84 208h344M84 284h344M84 360h344M132 84v344M208 84v344M284 84v344M360 84v344"/>
  <path fill="none" stroke="url(#edge)" stroke-width="24" d="M95 171V95h322v322h-76" opacity=".95"/>
  <path fill="none" stroke="#fff" stroke-linecap="square" stroke-width="30" d="M130 354V158l126 196V158"/>
  <path fill="none" stroke="url(#shine)" stroke-linecap="square" stroke-width="30" d="M285 158h112M341 158v198"/>
  <path fill="none" stroke="#19bda7" stroke-linecap="square" stroke-width="14" d="M118 395h128" filter="url(#glow)"/>
  <path fill="none" stroke="#d8ff55" stroke-linecap="square" stroke-width="14" d="M294 395h100" filter="url(#glow)"/>
</svg>
